<?xml version="1.0" encoding="iso-8859-1"?>
<!-- Generator: Adobe Illustrator 19.0.0, SVG Export Plug-In . SVG Version: 6.00 Build 0)  -->
<svg version="1.1" id="Capa_1" xmlns="http://www.w3.org/2000/svg" xmlns:xlink="http://www.w3.org/1999/xlink" x="0px" y="0px"
	 viewBox="0 0 369.481 369.481" style="enable-background:new 0 0 369.481 369.481;" xml:space="preserve">
<path style="fill:#EE5281;" d="M75.515,110.068c0,0,6.827-95.573,20.48-102.4s143.36,27.307,163.84,27.307s20.48,81.92,20.48,88.747
	C280.315,130.548,75.515,110.068,75.515,110.068z"/>
<path d="M265.822,131.608c-22.607,0-73.566-3.007-190.986-14.747c-3.673-0.367-6.393-3.593-6.127-7.281
	C71.363,72.439,78.036,9.013,92.942,1.56c9.281-4.659,40.806,1.333,105.52,15.113c26.493,5.641,53.879,11.474,61.373,11.474
	c18.12,0,27.307,32.154,27.307,95.573c0,1.927-0.98,4.081-2.406,5.373C283.648,130.075,281.955,131.608,265.822,131.608z
	 M82.828,103.934c66.927,6.607,167.439,15.34,190.633,14.353c-0.553-53.32-9.16-76.486-13.626-76.486
	c-8.499,0-29.94-4.473-64.213-11.773c-33.08-7.047-88.467-18.847-96.807-16.154C93.222,18.881,86.129,63.261,82.828,103.934z"/>
<path style="fill:#FFDD95;" d="M298.134,362.655H71.349c-9.192,0-16.821-7.103-17.476-16.273l-11.15-135.625
	c-0.724-10.143,7.308-18.77,17.476-18.77h249.086c10.168,0,18.202,8.627,17.476,18.77l-11.15,135.625
	C314.955,355.552,307.326,362.655,298.134,362.655z"/>
<path d="M298.134,369.481H71.349c-12.713,0-23.38-9.933-24.281-22.613L35.915,211.314c-0.486-6.787,1.874-13.467,6.46-18.393
	c4.588-4.934,11.087-7.76,17.826-7.76h249.08c6.74,0,13.24,2.826,17.826,7.76c4.588,4.927,6.946,11.607,6.46,18.319l-11.153,135.7
	C321.516,359.549,310.849,369.481,298.134,369.481z M60.201,198.815c-3.007,0-5.787,1.213-7.834,3.407
	c-2.046,2.2-3.053,5.053-2.84,8.047l11.153,135.554c0.399,5.647,5.086,10.006,10.667,10.006h226.787
	c5.581,0,10.267-4.361,10.667-9.933l11.153-135.7c0.213-2.92-0.794-5.774-2.84-7.974c-2.046-2.193-4.826-3.407-7.834-3.407H60.201z"
	/>
<path style="fill:#F97DA3;" d="M355.176,125.462c-0.009-0.092-0.02-0.183-0.029-0.275c-0.099-0.939-0.167-1.881-0.369-2.784
	c-3.488-25.375-22.516-51.963-47.157-39.642c-27.307,13.653-131.657,20.48-131.657,20.48H38.596
	c-13.544,0-24.521,10.979-24.521,24.521v39.704c0,13.544,10.979,24.521,24.521,24.521h292.291c13.544,0,24.521-10.979,24.521-24.521
	v-39.704C355.408,126.974,355.25,126.232,355.176,125.462z"/>
<path d="M330.889,198.815H38.595c-17.287,0-31.346-14.06-31.346-31.346v-39.707c0-17.287,14.06-31.346,31.346-31.346h137.373
	c28.199-1.86,107.22-9.066,128.601-19.76c10.134-5.074,20.48-5.113,29.894-0.147c13.688,7.214,24.313,24.859,27.08,44.96
	c0.126,0.454,0.241,1.466,0.346,2.493c0,0.06,0.067,0.679,0.067,0.741l-6.781,0.759l6.793-0.654l0.067,0.532
	c0.113,0.794,0.2,1.594,0.2,2.42v39.707C362.235,184.755,348.175,198.815,330.889,198.815z M319.908,86.468
	c-2.973,0-6.033,0.8-9.233,2.4c-28.213,14.107-129.947,20.9-134.26,21.187l-137.82,0.014c-9.754,0-17.693,7.939-17.693,17.693
	v39.707c0,9.754,7.939,17.693,17.693,17.693h292.294c9.754,0,17.693-7.939,17.693-17.693l-0.2-41.359
	c-0.007-0.02-0.007-0.046-0.007-0.067c-0.02-0.179-0.073-0.713-0.073-0.734c-0.053-0.48-0.08-0.966-0.186-1.434
	c-2.214-15.933-10.407-30.22-20.019-35.287C325.422,87.175,322.708,86.468,319.908,86.468z"/>
<path d="M184.742,335.348c-3.773,0-6.827-3.053-6.827-6.827v-102.4c0-3.773,3.053-6.827,6.827-6.827s6.827,3.053,6.827,6.827v102.4
	C191.568,332.295,188.515,335.348,184.742,335.348z"/>
<path d="M225.708,335.348c-0.3,0-0.601-0.02-0.906-0.06c-3.739-0.5-6.366-3.934-5.868-7.666l13.653-102.4
	c0.5-3.739,3.92-6.366,7.666-5.868c3.739,0.5,6.366,3.934,5.868,7.666l-13.653,102.4
	C232.008,332.855,229.081,335.348,225.708,335.348z"/>
<path d="M266.668,335.348c-0.3,0-0.601-0.02-0.906-0.06c-3.739-0.5-6.366-3.934-5.868-7.666l13.653-102.4
	c0.5-3.739,3.9-6.366,7.666-5.868c3.739,0.5,6.366,3.934,5.868,7.666l-13.653,102.4
	C272.968,332.855,270.041,335.348,266.668,335.348z"/>
<path d="M143.775,335.348c-3.374,0-6.299-2.493-6.76-5.927l-13.653-102.4c-0.5-3.734,2.127-7.166,5.868-7.666
	c3.773-0.5,7.166,2.127,7.666,5.868l13.653,102.4c0.5,3.734-2.127,7.166-5.868,7.666
	C144.375,335.328,144.075,335.348,143.775,335.348z"/>
<path d="M102.815,335.348c-3.374,0-6.299-2.493-6.76-5.927l-13.653-102.4c-0.5-3.734,2.127-7.166,5.868-7.666
	c3.753-0.5,7.166,2.127,7.666,5.868l13.653,102.4c0.5,3.734-2.127,7.166-5.868,7.666
	C103.415,335.328,103.115,335.348,102.815,335.348z"/>
<path d="M75.522,144.201c-2.507,0-4.913-1.381-6.113-3.773l-6.827-13.653c-1.686-3.374-0.321-7.473,3.053-9.16
	c3.367-1.673,7.467-0.321,9.16,3.053l6.827,13.653c1.686,3.374,0.321,7.473-3.053,9.16
	C77.588,143.968,76.547,144.201,75.522,144.201z"/>
<path d="M89.168,157.855c-1.746,0-3.494-0.667-4.826-2c-2.666-2.666-2.666-6.987,0-9.653l13.653-13.653
	c2.666-2.666,6.987-2.666,9.653,0c2.666,2.666,2.666,6.987,0,9.653l-13.653,13.653C92.662,157.189,90.914,157.855,89.168,157.855z"
	/>
<path d="M143.775,151.028c-1.027,0-2.067-0.234-3.046-0.72l-13.653-6.827c-3.374-1.686-4.739-5.787-3.053-9.16
	c1.693-3.379,5.787-4.727,9.16-3.053l13.653,6.827c3.374,1.686,4.739,5.787,3.053,9.16
	C148.688,149.649,146.282,151.028,143.775,151.028z"/>
<path d="M232.528,151.028c-1.746,0-3.494-0.667-4.826-2l-6.827-6.827c-2.666-2.666-2.666-6.987,0-9.653s6.987-2.666,9.653,0
	l6.827,6.827c2.666,2.666,2.666,6.987,0,9.653C236.022,150.362,234.274,151.028,232.528,151.028z"/>
<path d="M259.828,157.855c-1.027,0-2.067-0.234-3.046-0.72c-3.374-1.686-4.739-5.787-3.053-9.16l6.827-13.653
	c1.686-3.379,5.787-4.727,9.16-3.053c3.374,1.686,4.739,5.787,3.053,9.16l-6.827,13.653
	C264.742,156.476,262.335,157.855,259.828,157.855z"/>
<path d="M293.961,130.548c-1.027,0-2.067-0.234-3.046-0.72l-13.653-6.827c-3.374-1.686-4.739-5.787-3.053-9.16
	c1.686-3.372,5.787-4.727,9.16-3.053l13.653,6.827c3.374,1.686,4.739,5.787,3.053,9.16
	C298.875,129.169,296.469,130.548,293.961,130.548z"/>
<path d="M314.448,157.855c-3.773,0-6.827-3.053-6.827-6.827v-6.827c0-3.773,3.053-6.827,6.827-6.827s6.827,3.053,6.827,6.827v6.827
	C321.275,154.802,318.222,157.855,314.448,157.855z"/>
<path d="M184.742,164.681c-1.746,0-3.494-0.667-4.826-2l-6.827-6.827c-2.666-2.666-2.666-6.987,0-9.653
	c2.666-2.666,6.987-2.666,9.653,0l6.827,6.827c2.666,2.666,2.666,6.987,0,9.653C188.235,164.016,186.487,164.681,184.742,164.681z"
	/>
<path d="M184.748,137.375c-2.507,0-4.913-1.381-6.113-3.773c-1.686-3.374-0.321-7.473,3.053-9.16l13.653-6.827
	c3.374-1.673,7.467-0.321,9.16,3.053c1.686,3.374,0.321,7.473-3.053,9.16l-13.653,6.827
	C186.815,137.141,185.774,137.375,184.748,137.375z"/>
<path d="M41.382,164.681c-2.86,0-5.519-1.807-6.473-4.666c-1.193-3.581,0.741-7.446,4.313-8.634l20.48-6.827
	c3.606-1.2,7.439,0.741,8.634,4.313c1.193,3.581-0.741,7.446-4.313,8.634l-20.48,6.827
	C42.822,164.569,42.095,164.681,41.382,164.681z"/>
<g>
</g>
<g>
</g>
<g>
</g>
<g>
</g>
<g>
</g>
<g>
</g>
<g>
</g>
<g>
</g>
<g>
</g>
<g>
</g>
<g>
</g>
<g>
</g>
<g>
</g>
<g>
</g>
<g>
</g>
</svg>
