<?xml version="1.0" encoding="iso-8859-1"?>
<!-- Generator: Adobe Illustrator 19.0.0, SVG Export Plug-In . SVG Version: 6.00 Build 0)  -->
<svg version="1.1" id="Capa_1" xmlns="http://www.w3.org/2000/svg" xmlns:xlink="http://www.w3.org/1999/xlink" x="0px" y="0px"
	 viewBox="0 0 436.907 436.907" style="enable-background:new 0 0 436.907 436.907;" xml:space="preserve">
<polygon style="fill:#EE5281;" points="187.57,6.827 249.01,6.827 255.836,47.787 180.743,47.787 "/>
<path d="M255.835,54.613h-75.09c-2.007,0-3.913-0.881-5.21-2.413c-1.297-1.533-1.853-3.553-1.524-5.533l6.827-40.96
	C181.383,2.413,184.233,0,187.57,0h61.437c3.34,0,6.187,2.413,6.733,5.707l6.827,40.96c0.333,1.98-0.227,4-1.527,5.533
	C259.748,53.733,257.842,54.613,255.835,54.613z M188.805,40.96h58.97l-4.547-27.307h-49.874L188.805,40.96z"/>
<path style="fill:#777777;" d="M187.57,47.787h61.44l7.777,34.475c1.659,7.352,6.255,18.425,10.359,24.88l23.033,36.219v122.88
	l-10.788,48.406c-3.285,14.739-0.821,37.738,5.531,51.437l2.372,5.113c6.34,13.669,2.553,33.188-8.371,43.515l-11.313,10.694
	c-2.731,2.582-8.001,4.675-11.762,4.675h-75.114c-3.765,0-9.059-2.135-11.8-4.746l-11.049-10.523
	c-10.94-10.418-14.626-29.916-8.206-43.614l2.396-5.113c6.407-13.669,8.897-36.649,5.536-51.437L146.61,266.24V143.36l23.363-36.34
	c4.064-6.321,8.634-17.401,10.211-24.757L187.57,47.787z"/>
<path d="M255.848,436.907h-75.114c-5.536,0-12.483-2.787-16.51-6.634l-11.047-10.513c-13.107-12.486-17.357-35.087-9.68-51.459
	l2.393-5.113c5.75-12.268,8.071-33.801,5.064-47.027l-10.999-48.406c-0.113-0.5-0.171-1.007-0.171-1.514V143.36
	c0-1.307,0.377-2.594,1.084-3.693l23.361-36.34c3.63-5.641,7.876-15.94,9.277-22.494l7.39-34.48
	c0.676-3.147,3.456-5.393,6.676-5.393h61.437c3.193,0,5.953,2.214,6.659,5.327l7.781,34.473c1.487,6.593,5.82,16.993,9.46,22.714
	l23.033,36.227c0.7,1.094,1.067,2.36,1.067,3.661v122.88c0,0.5-0.053,1-0.167,1.487l-10.786,48.406
	c-2.953,13.247-0.633,34.801,5.06,47.073l2.374,5.12c7.6,16.381,3.26,38.932-9.88,51.347l-11.313,10.694
	C268.281,434.161,261.368,436.907,255.848,436.907z M153.438,265.474l10.831,47.66c3.693,16.247,1.05,40.781-6.013,55.847
	l-2.393,5.113c-5.159,11.006-2.077,27.387,6.729,35.78l11.051,10.513c1.49,1.42,5.067,2.867,7.093,2.867h75.114
	c2.028,0,5.6-1.42,7.074-2.813l11.314-10.687c8.827-8.34,11.967-24.68,6.866-35.68l-2.374-5.12
	c-6.98-15.053-9.614-39.561-5.994-55.793l10.621-47.674V145.348l-21.967-34.546c-4.48-7.033-9.426-18.913-11.261-27.04
	l-6.581-29.148h-50.456l-6.233,29.08c-1.741,8.134-6.637,20.007-11.143,27.02l-22.277,34.654v120.107H153.438z"/>
<rect x="146.603" y="143.36" style="fill:#EE5281;" width="143.36" height="122.88"/>
<path d="M289.968,273.067H146.611c-3.77,0-6.827-3.053-6.827-6.827V143.36c0-3.773,3.057-6.827,6.827-6.827h143.357
	c3.773,0,6.827,3.053,6.827,6.827v122.88C296.795,270.013,293.741,273.067,289.968,273.067z M153.438,259.413h129.703V150.187
	H153.438V259.413z"/>
<g>
</g>
<g>
</g>
<g>
</g>
<g>
</g>
<g>
</g>
<g>
</g>
<g>
</g>
<g>
</g>
<g>
</g>
<g>
</g>
<g>
</g>
<g>
</g>
<g>
</g>
<g>
</g>
<g>
</g>
</svg>
